<svg width="100" height="21" viewBox="0 0 100 21" fill="none" xmlns="http://www.w3.org/2000/svg">
<path d="M39.6395 20.4389C39.6837 20.4389 39.7059 20.5052 39.7059 20.638C39.7059 20.7707 39.6837 20.837 39.6395 20.837C38.8874 20.837 38.2902 20.826 37.8478 20.8039L35.3925 20.7707L32.904 20.8039C32.4837 20.826 31.9086 20.837 31.1786 20.837C31.1122 20.837 31.0791 20.7707 31.0791 20.638C31.0791 20.5052 31.1122 20.4389 31.1786 20.4389C32.1076 20.4389 32.7381 20.3283 33.0699 20.1071C33.4017 19.8859 33.5676 19.4214 33.5676 18.7135L33.5344 18.1495L32.8376 4.57884L26.0025 20.6048C25.9583 20.6933 25.8698 20.7375 25.7371 20.7375C25.6044 20.7375 25.5159 20.6933 25.4716 20.6048L17.0771 4.6452L16.8117 16.6232C16.7895 17.8177 17.0218 18.7578 17.5084 19.4435C18.0172 20.1071 18.725 20.4389 19.632 20.4389C19.6983 20.4389 19.7315 20.5052 19.7315 20.638C19.7315 20.7707 19.6983 20.837 19.632 20.837C19.0347 20.837 18.5702 20.826 18.2384 20.8039L16.4135 20.7707L14.3232 20.8039C13.9692 20.826 13.4937 20.837 12.8964 20.837C12.8301 20.837 12.7969 20.7707 12.7969 20.638C12.7969 20.5052 12.8301 20.4389 12.8964 20.4389C13.8033 20.4389 14.5222 20.096 15.0531 19.4103C15.584 18.7246 15.8605 17.7955 15.8826 16.6232L16.1812 2.88666L16.1481 2.85348C15.7057 2.03504 15.2411 1.4378 14.7545 1.06176C14.29 0.685719 13.748 0.497698 13.1287 0.497698C13.0623 0.497698 13.0291 0.431338 13.0291 0.298618C13.0291 0.165899 13.0623 0.0995407 13.1287 0.0995407L14.6881 0.132719C14.9978 0.154839 15.396 0.165899 15.8826 0.165899L17.6412 0.132719C17.8402 0.110599 18.0946 0.0995407 18.4043 0.0995407C18.6919 0.0995407 18.9131 0.199078 19.0679 0.398157C19.2227 0.597237 19.5103 1.07282 19.9306 1.8249L27.1638 15.3955L33.468 0.929039C33.6007 0.619359 33.7335 0.409218 33.8662 0.298618C34.021 0.165899 34.2201 0.0995407 34.4634 0.0995407C34.6625 0.0995407 34.8837 0.110599 35.127 0.132719C35.3925 0.154839 35.6911 0.165899 36.0229 0.165899L37.9805 0.132719C38.2902 0.110599 38.7326 0.0995407 39.3077 0.0995407C39.3741 0.0995407 39.4072 0.165899 39.4072 0.298618C39.4072 0.431338 39.3741 0.497698 39.3077 0.497698C38.2681 0.497698 37.516 0.707839 37.0515 1.12812C36.5869 1.5484 36.3768 2.20094 36.421 3.08574L37.2174 18.1495C37.2616 18.8352 37.339 19.3329 37.4496 19.6426C37.5823 19.9522 37.8035 20.1624 38.1132 20.273C38.445 20.3836 38.9538 20.4389 39.6395 20.4389Z" fill="white"/>
<path d="M52.3946 9.19086C54.2527 9.41206 55.7237 10.0314 56.8076 11.0489C57.9136 12.0665 58.4666 13.3273 58.4666 14.8315C58.4666 15.9817 58.1348 17.0213 57.4712 17.9504C56.8076 18.8794 55.8896 19.6204 54.7172 20.1734C53.5449 20.7043 52.2398 20.9698 50.802 20.9698C50.1826 20.9698 49.4748 20.9366 48.6785 20.8702C48.3688 20.8481 47.9817 20.826 47.5172 20.8039C47.0747 20.7817 46.5771 20.7707 46.0241 20.7707L43.6019 20.8039C43.1595 20.826 42.5623 20.837 41.8102 20.837C41.7438 20.837 41.7107 20.7707 41.7107 20.638C41.7107 20.5052 41.7438 20.4389 41.8102 20.4389C42.4517 20.4389 42.9383 20.3836 43.2701 20.273C43.6019 20.1403 43.8342 19.9191 43.9669 19.6094C44.1217 19.2776 44.1992 18.7909 44.1992 18.1495V2.78712C44.1992 1.85808 44.0443 1.24978 43.7346 0.962219C43.425 0.652539 42.7945 0.497698 41.8434 0.497698C41.7991 0.497698 41.777 0.431338 41.777 0.298618C41.777 0.165899 41.7991 0.0995407 41.8434 0.0995407L43.6019 0.132719C44.6194 0.176958 45.4268 0.199078 46.0241 0.199078C46.6434 0.199078 47.2849 0.1659 47.9485 0.0995407C48.1697 0.0774197 48.5015 0.055298 48.9439 0.0331783C49.3863 0.0110586 49.7734 0 50.1052 0C52.1181 0 53.6776 0.364978 54.7836 1.09494C55.8896 1.8249 56.4426 2.88666 56.4426 4.28022C56.4426 5.34198 56.0887 6.3042 55.3808 7.16688C54.6951 8.02956 53.6997 8.70422 52.3946 9.19086ZM49.6075 0.729959C48.966 0.729959 48.5236 0.884799 48.2803 1.19448C48.037 1.48204 47.9153 2.03504 47.9153 2.85348V9.15768L49.2425 9.19086C50.3927 9.19086 51.2775 8.75952 51.8969 7.89684C52.5163 7.03416 52.826 5.92816 52.826 4.57884C52.826 3.318 52.5495 2.36684 51.9965 1.72536C51.4435 1.06176 50.6471 0.729959 49.6075 0.729959ZM50.2379 20.1403C53.1356 20.1403 54.5845 18.6361 54.5845 15.6278C54.5845 13.9245 54.1753 12.5752 53.3568 11.5798C52.5384 10.5844 51.2997 10.0867 49.6407 10.0867C48.9992 10.0867 48.4241 10.1088 47.9153 10.1531V18.1495C47.9153 18.8794 48.0591 19.3992 48.3467 19.7089C48.6342 19.9965 49.2646 20.1403 50.2379 20.1403Z" fill="white"/>
<path d="M87.8218 20.4389C87.866 20.4389 87.8881 20.5052 87.8881 20.638C87.8881 20.7707 87.866 20.837 87.8218 20.837C87.0697 20.837 86.4725 20.826 86.0301 20.8039L83.5747 20.7707L81.0863 20.8039C80.666 20.826 80.0908 20.837 79.3609 20.837C79.2945 20.837 79.2613 20.7707 79.2613 20.638C79.2613 20.5052 79.2945 20.4389 79.3609 20.4389C80.2899 20.4389 80.9203 20.3283 81.2522 20.1071C81.584 19.8859 81.7498 19.4214 81.7498 18.7135L81.7167 18.1495L81.0199 4.57884L74.1848 20.6048C74.1406 20.6933 74.0521 20.7375 73.9194 20.7375C73.7866 20.7375 73.6982 20.6933 73.6539 20.6048L65.2594 4.6452L64.9939 16.6232C64.9718 17.8177 65.2041 18.7578 65.6907 19.4435C66.1995 20.1071 66.9073 20.4389 67.8142 20.4389C67.8806 20.4389 67.9138 20.5052 67.9138 20.638C67.9138 20.7707 67.8806 20.837 67.8142 20.837C67.217 20.837 66.7525 20.826 66.4207 20.8039L64.5958 20.7707L62.5054 20.8039C62.1515 20.826 61.6759 20.837 61.0787 20.837C61.0123 20.837 60.9792 20.7707 60.9792 20.638C60.9792 20.5052 61.0123 20.4389 61.0787 20.4389C61.9856 20.4389 62.7045 20.096 63.2354 19.4103C63.7663 18.7246 64.0428 17.7955 64.0649 16.6232L64.3635 2.88666L64.3303 2.85348C63.8879 2.03504 63.4234 1.4378 62.9368 1.06176C62.4723 0.685719 61.9303 0.497698 61.311 0.497698C61.2446 0.497698 61.2114 0.431338 61.2114 0.298618C61.2114 0.165899 61.2446 0.0995407 61.311 0.0995407L62.8704 0.132719C63.1801 0.154839 63.5783 0.165899 64.0649 0.165899L65.8234 0.132719C66.0225 0.110599 66.2769 0.0995407 66.5866 0.0995407C66.8741 0.0995407 67.0953 0.199078 67.2502 0.398157C67.405 0.597237 67.6926 1.07282 68.1129 1.8249L75.3461 15.3955L81.6503 0.929039C81.783 0.619359 81.9157 0.409218 82.0485 0.298618C82.2033 0.165899 82.4024 0.0995407 82.6457 0.0995407C82.8448 0.0995407 83.066 0.110599 83.3093 0.132719C83.5748 0.154839 83.8734 0.165899 84.2052 0.165899L86.1628 0.132719C86.4725 0.110599 86.9149 0.0995407 87.49 0.0995407C87.5564 0.0995407 87.5895 0.165899 87.5895 0.298618C87.5895 0.431338 87.5564 0.497698 87.49 0.497698C86.4503 0.497698 85.6983 0.707839 85.2337 1.12812C84.7692 1.5484 84.5591 2.20094 84.6033 3.08574L85.3997 18.1495C85.4439 18.8352 85.5213 19.3329 85.6319 19.6426C85.7646 19.9522 85.9858 20.1624 86.2955 20.273C86.6273 20.3836 87.1361 20.4389 87.8218 20.4389Z" fill="white"/>
<circle cx="2" cy="11" r="2" fill="white"/>
<circle cx="98" cy="11" r="2" fill="white"/>
</svg>
