<svg width="17" height="16" viewBox="0 0 17 16" fill="none" xmlns="http://www.w3.org/2000/svg">
<g clip-path="url(#clip0_179_2210)">
<path d="M11.9551 0H4.61718C2.229 0 0.286133 1.94287 0.286133 4.33105V11.669C0.286133 14.0571 2.229 16 4.61718 16H11.9552C14.3432 16 16.2861 14.0571 16.2861 11.669V4.33105C16.2861 1.94287 14.3432 0 11.9551 0V0ZM8.28612 12.3749C5.87377 12.3749 3.91125 10.4123 3.91125 7.99998C3.91125 5.58764 5.87377 3.62512 8.28612 3.62512C10.6985 3.62512 12.661 5.58764 12.661 7.99998C12.661 10.4123 10.6985 12.3749 8.28612 12.3749ZM12.7656 4.65685C12.0527 4.65685 11.4729 4.07702 11.4729 3.36413C11.4729 2.65124 12.0527 2.07129 12.7656 2.07129C13.4785 2.07129 14.0584 2.65124 14.0584 3.36413C14.0584 4.07702 13.4785 4.65685 12.7656 4.65685Z" fill="#414042"/>
<path d="M8.28649 4.56348C6.39148 4.56348 4.84961 6.10522 4.84961 8.00036C4.84961 9.89538 6.39148 11.4372 8.28649 11.4372C10.1816 11.4372 11.7234 9.89538 11.7234 8.00036C11.7234 6.10522 10.1816 4.56348 8.28649 4.56348Z" fill="#414042"/>
<path d="M12.7659 3.00977C12.5703 3.00977 12.4111 3.16894 12.4111 3.3645C12.4111 3.56006 12.5703 3.71924 12.7659 3.71924C12.9615 3.71924 13.1207 3.56018 13.1207 3.3645C13.1207 3.16882 12.9615 3.00977 12.7659 3.00977Z" fill="#414042"/>
</g>
<defs>
<clipPath id="clip0_179_2210">
<rect width="16" height="16" fill="white" transform="translate(0.286133)"/>
</clipPath>
</defs>
</svg>
