<svg width="128" height="128" viewBox="0 0 128 128" fill="none" xmlns="http://www.w3.org/2000/svg">
<circle cx="64" cy="64" r="63.5" stroke="white"/>
<path d="M55.5116 72.4853L72.4821 55.5147M72.4821 55.5147C72.4821 55.5147 70.1934 58.3568 66.624 58.0525C63.0546 57.7482 60.7541 54.5148 60.7541 54.5148M72.4821 55.5147C72.4821 55.5147 69.64 57.8035 69.6676 61.0962C69.6952 64.3889 73.482 67.2428 73.482 67.2428" stroke="#F93232" stroke-width="2"/>
<path d="M16.5122 59.2306C16.4299 60.1977 16.1549 61.008 15.6872 61.6614C15.2195 62.3148 14.5931 62.7954 13.8082 63.1034C13.0241 63.402 12.1112 63.507 11.0697 63.4184C10.0374 63.3306 9.16005 63.0733 8.43762 62.6466C7.71598 62.2105 7.17983 61.631 6.82917 60.908C6.47851 60.185 6.34432 59.3399 6.42658 58.3728C6.48432 57.6939 6.64426 57.0799 6.90641 56.5308C7.16934 55.9724 7.52241 55.5107 7.96561 55.1456L8.86227 55.6715C8.42599 56.0652 8.09974 56.4871 7.88349 56.9371C7.65874 57.3769 7.52263 57.8759 7.47517 58.4338C7.38105 59.5405 7.65781 60.4165 8.30546 61.0617C8.95311 61.7069 9.90932 62.0833 11.1741 62.1908C12.4482 62.2992 13.4588 62.0901 14.2062 61.5635C14.9535 61.037 15.3742 60.2204 15.4683 59.1137C15.5158 58.5557 15.4705 58.0414 15.3326 57.5706C15.1862 57.0898 14.9312 56.6185 14.5677 56.1567L15.5403 55.7898C15.9061 56.2237 16.1762 56.7385 16.3503 57.334C16.516 57.9195 16.5699 58.5517 16.5122 59.2306Z" fill="white"/>
<path d="M17.5841 52.7513C17.434 53.4255 17.1246 53.8921 16.6558 54.1511C16.1799 54.3989 15.5639 54.4387 14.8077 54.2704L7.37363 52.6157L7.62 51.5088L14.9721 53.1453C15.9469 53.3622 16.5205 53.0835 16.6928 52.3091C16.7435 52.0814 16.7618 51.8703 16.7477 51.6759L17.6709 51.9101C17.6718 52.2067 17.6429 52.4871 17.5841 52.7513Z" fill="white"/>
<path d="M9.90202 48.0597L8.68586 47.6802L9.10292 46.3437L10.3191 46.7233L9.90202 48.0597ZM18.0559 50.4576L11.5608 48.4307L11.8986 47.3482L18.3937 49.3751L18.0559 50.4576Z" fill="white"/>
<path d="M20.2304 44.8285C19.965 45.456 19.6027 45.9412 19.1436 46.2841C18.6758 46.6234 18.1442 46.814 17.5488 46.8561C16.9484 46.8859 16.3173 46.7608 15.6554 46.4808C14.6582 46.0591 13.9905 45.4574 13.6522 44.6759C13.3054 43.8908 13.3319 43.0254 13.7318 42.0799C13.8954 41.693 14.126 41.3396 14.4235 41.0195C14.721 40.6995 15.0472 40.4675 15.4019 40.3237L16.0099 41.0065C15.6638 41.154 15.3712 41.3545 15.1322 41.6081C14.8969 41.8531 14.7228 42.1089 14.6101 42.3753C14.3338 43.0286 14.3274 43.6188 14.5909 44.1457C14.8459 44.669 15.3559 45.0925 16.1209 45.4161C16.8688 45.7324 17.5364 45.8071 18.1239 45.64C18.7028 45.4694 19.1304 45.0574 19.4067 44.4041C19.5194 44.1376 19.5817 43.8346 19.5936 43.4951C19.6091 43.147 19.5449 42.7956 19.4011 42.4408L20.3145 42.4016C20.4584 42.7563 20.5215 43.158 20.5041 43.6066C20.4816 44.043 20.3904 44.4503 20.2304 44.8285Z" fill="white"/>
<path d="M21.3984 41.9404L12.8637 36.9831L13.4333 36.0025L18.6994 39.0613L18.7135 39.0371L17.6807 34.7944L18.405 33.5475L19.522 38.1467L24.4362 36.7107L23.7119 37.9576L19.2219 39.3324L19.2079 39.3566L21.968 40.9599L21.3984 41.9404Z" fill="white"/>
<path d="M26.4432 34.0865L19.0941 27.498L19.8511 26.6536L22.9679 29.4479C22.8117 29.007 22.7911 28.5686 22.9061 28.1327C23.0204 27.6836 23.2457 27.2715 23.5822 26.8962C24.66 25.6939 25.8661 25.6909 27.2004 26.8871L30.3589 29.7188L29.6019 30.5632L26.4955 27.7782C26.023 27.3546 25.5948 27.14 25.2112 27.1345C24.8268 27.1158 24.454 27.308 24.0926 27.711C23.6752 28.1767 23.4878 28.6793 23.5305 29.2189C23.5724 29.7454 23.8331 30.2236 24.3126 30.6535L27.2001 33.2422L26.4432 34.0865Z" fill="white"/>
<path d="M33.5024 27.1654C32.6802 27.8553 31.8286 28.1617 30.9476 28.0847C30.0606 28.0005 29.2691 27.5437 28.5732 26.7143C28.1232 26.1781 27.8345 25.6162 27.707 25.0287C27.5735 24.4341 27.5997 23.8699 27.7855 23.3363C27.9724 22.7896 28.3126 22.3092 28.8059 21.8952C29.5137 21.3013 30.2598 21.0651 31.0441 21.1867C31.8225 21.3012 32.5446 21.7552 33.2106 22.5488L33.4895 22.8813L29.5644 26.175C30.0909 26.7444 30.6435 27.0544 31.2221 27.105C31.7946 27.1485 32.3597 26.9362 32.9174 26.4683C33.232 26.2043 33.4933 25.9058 33.7013 25.5729C33.9033 25.2328 34.04 24.844 34.1114 24.4064L34.9246 24.7657C34.8747 25.1853 34.7214 25.6125 34.4647 26.0471C34.2021 26.4746 33.8813 26.8474 33.5024 27.1654ZM29.3673 22.5207C28.874 22.9347 28.6133 23.4154 28.5853 23.9628C28.5573 24.5102 28.7282 25.0551 29.0981 25.5976L32.2619 22.9428C31.7964 22.4317 31.3121 22.1376 30.8087 22.0605C30.3125 21.9773 29.832 22.1307 29.3673 22.5207Z" fill="white"/>
<path d="M36.5141 24.659L32.8196 18.9455L33.7483 18.3449L34.4097 19.3677C34.2694 18.4803 34.6506 17.6948 35.5533 17.011L35.8715 16.7553L36.4741 17.5326L35.9202 17.9909C35.4098 18.3876 35.1098 18.8261 35.0202 19.3064C34.9256 19.7788 35.043 20.2697 35.3724 20.7792L37.4781 24.0357L36.5141 24.659Z" fill="white"/>
<path d="M43.5296 20.7513C42.5624 21.2167 41.6615 21.3033 40.8268 21.011C39.9881 20.7103 39.334 20.0722 38.8645 19.0967C38.5609 18.4659 38.42 17.8501 38.4415 17.2493C38.4591 16.6401 38.6238 16.0999 38.9356 15.6287C39.2518 15.1451 39.7001 14.7636 40.2804 14.4844C41.113 14.0837 41.8943 14.0391 42.6243 14.3507C43.3502 14.6538 43.9378 15.2722 44.3871 16.2057L44.5753 16.5968L39.9582 18.8189C40.3278 19.5007 40.7867 19.9376 41.3348 20.1295C41.8789 20.3131 42.4789 20.247 43.1349 19.9313C43.505 19.7532 43.8319 19.5285 44.1157 19.2573C44.3954 18.9777 44.6239 18.6346 44.8012 18.2282L45.5005 18.7773C45.3484 19.1715 45.0944 19.5476 44.7383 19.9054C44.3782 20.2548 43.9753 20.5367 43.5296 20.7513ZM40.6699 15.2291C40.0896 15.5084 39.7183 15.9098 39.5559 16.4333C39.3936 16.9569 39.4246 17.5272 39.6491 18.1442L43.3705 16.3531C43.0458 15.743 42.649 15.3383 42.1803 15.1392C41.72 14.9361 41.2165 14.966 40.6699 15.2291Z" fill="white"/>
<path d="M53.0437 17.3952C52.2681 17.6022 51.6323 17.5545 51.1363 17.2523C50.6378 16.941 50.285 16.3975 50.078 15.622L49.1574 12.1728L47.8723 12.5158L47.6449 11.6636L48.9299 11.3206L48.3919 9.30519L49.4876 9.01273L50.0255 11.0282L52.1086 10.4721L52.3361 11.3243L50.253 11.8803L51.1448 15.2214C51.282 15.7354 51.4949 16.0987 51.7836 16.3115C52.0698 16.5152 52.4564 16.5521 52.9433 16.4221C53.0876 16.3836 53.2271 16.3271 53.3617 16.2525C53.4964 16.1779 53.6175 16.107 53.7251 16.0396L54.1383 16.8277C54.0379 16.9221 53.8823 17.0264 53.6713 17.1407C53.4603 17.255 53.2511 17.3398 53.0437 17.3952Z" fill="white"/>
<path d="M57.0943 16.6531C56.4384 16.7472 55.8497 16.6855 55.3281 16.4681C54.8066 16.2506 54.3748 15.9024 54.0326 15.4235C53.6984 14.934 53.4802 14.3336 53.3782 13.6222C53.2761 12.9108 53.3173 12.2779 53.5017 11.7234C53.6941 11.1583 54.0099 10.6981 54.4493 10.3428C54.8886 9.98748 55.4362 9.76276 56.0922 9.66863C56.7389 9.57584 57.323 9.63818 57.8445 9.85564C58.3752 10.0718 58.8077 10.4246 59.142 10.9141C59.4841 11.393 59.7062 11.9882 59.8083 12.6995C59.9104 13.4109 59.8652 14.0491 59.6729 14.6142C59.4884 15.1687 59.1719 15.6243 58.7234 15.9809C58.2841 16.3362 57.741 16.5603 57.0943 16.6531ZM56.9651 15.7523C57.5933 15.6622 58.065 15.3682 58.3802 14.8704C58.694 14.3634 58.7913 13.6941 58.672 12.8626C58.5513 12.0219 58.2698 11.407 57.8274 11.0179C57.385 10.6287 56.8496 10.4793 56.2214 10.5694C55.5839 10.6609 55.1076 10.9555 54.7925 11.4533C54.4865 11.9498 54.3939 12.6184 54.5145 13.4591C54.6338 14.2906 54.9107 14.9062 55.3453 15.3059C55.7877 15.695 56.3276 15.8438 56.9651 15.7523Z" fill="white"/>
<path d="M66.9763 16.2492C66.2864 16.2172 65.7735 15.9926 65.4378 15.5752C65.1119 15.149 64.9668 14.549 65.0027 13.7752L65.3553 6.16732L66.488 6.21982L66.1394 13.7437C66.0931 14.7413 66.4663 15.2585 67.2587 15.2952C67.4918 15.306 67.7029 15.2878 67.892 15.2405L67.8199 16.1902C67.5279 16.242 67.2467 16.2617 66.9763 16.2492Z" fill="white"/>
<path d="M71.9594 16.8267C70.9001 16.6539 70.1122 16.2086 69.5956 15.4908C69.0806 14.7637 68.9103 13.8659 69.0846 12.7974C69.1973 12.1065 69.4346 11.5211 69.7966 11.0411C70.1601 10.5519 70.6046 10.2036 71.1302 9.99614C71.6665 9.781 72.2524 9.72527 72.888 9.82894C73.8 9.97769 74.4658 10.3889 74.8855 11.0626C75.3067 11.7271 75.4339 12.5705 75.2671 13.593L75.1973 14.0214L70.1401 13.1965C70.0522 13.9671 70.1779 14.5881 70.5171 15.0595C70.8578 15.5217 71.3874 15.8114 72.1059 15.9286C72.5112 15.9947 72.9079 15.9979 73.2959 15.9383C73.6854 15.8694 74.0692 15.7192 74.4474 15.4878L74.7058 16.3385C74.3553 16.5745 73.9316 16.737 73.4347 16.8262C72.9394 16.9062 72.4476 16.9064 71.9594 16.8267ZM72.7805 10.6625C72.1449 10.5588 71.6105 10.675 71.1774 11.011C70.7444 11.347 70.443 11.8321 70.2734 12.4664L74.3495 13.1313C74.433 12.4451 74.3398 11.8861 74.0698 11.4544C73.809 11.0241 73.3792 10.7602 72.7805 10.6625Z" fill="white"/>
<path d="M77.6746 18.1531C77.2296 18.0124 76.8559 17.8012 76.5534 17.5196C76.2626 17.2319 76.0627 16.9044 75.9537 16.5371C75.8447 16.1698 75.8493 15.7993 75.9675 15.4255C76.1167 14.9538 76.355 14.6181 76.6825 14.4182C77.0189 14.2211 77.4857 14.1534 78.0829 14.215C78.6919 14.2705 79.4858 14.453 80.4647 14.7625L80.8918 14.8976L81.0227 14.4838C81.1971 13.9321 81.2067 13.4995 81.0513 13.1861C80.9076 12.8665 80.5866 12.628 80.0882 12.4704C79.6967 12.3466 79.3002 12.2848 78.8987 12.2851C78.5001 12.2765 78.0701 12.3363 77.6086 12.4645L77.4839 11.5588C77.8981 11.4254 78.3679 11.3635 78.8935 11.3731C79.428 11.3855 79.9177 11.462 80.3626 11.6027C81.1991 11.8673 81.7529 12.2675 82.0239 12.8035C82.3038 13.3423 82.3073 14.0433 82.0343 14.9065L80.7427 18.9911L79.7282 18.6703L80.0828 17.5491C79.7927 17.8783 79.4345 18.0978 79.0082 18.2077C78.5907 18.3205 78.1462 18.3022 77.6746 18.1531ZM78.1056 17.3937C78.6395 17.5626 79.1333 17.518 79.5868 17.2601C80.0432 16.9933 80.3614 16.5751 80.5415 16.0055L80.6681 15.6051L80.2543 15.4742C79.5335 15.2463 78.9527 15.1018 78.5119 15.0407C78.0829 14.9736 77.7571 14.9978 77.5345 15.1134C77.3237 15.223 77.1732 15.4201 77.0832 15.7049C76.9678 16.0697 76.9981 16.4073 77.1741 16.7174C77.3591 17.0304 77.6695 17.2558 78.1056 17.3937Z" fill="white"/>
<path d="M82.2711 19.6275L85.1073 13.4428L86.1126 13.9039L85.6049 15.011C86.2781 14.4162 87.1455 14.3159 88.2071 14.7103L88.5936 14.8414L88.2615 15.7672L87.5774 15.5459C86.9687 15.3284 86.4377 15.3108 85.9845 15.4931C85.5351 15.667 85.184 16.0296 84.9311 16.581L83.3146 20.1061L82.2711 19.6275Z" fill="white"/>
<path d="M86.7748 21.7226L90.3639 15.9422L91.3035 16.5256L90.6906 17.5128C91.1073 17.2662 91.5468 17.16 92.0089 17.1943C92.471 17.2285 92.9201 17.381 93.3562 17.6518C94.728 18.5035 94.9412 19.6906 93.996 21.213L91.7583 24.8168L90.7949 24.2187L92.9956 20.6743C93.3304 20.1351 93.4671 19.6761 93.4056 19.2974C93.357 18.9157 93.1027 18.582 92.6428 18.2965C92.1116 17.9666 91.584 17.8697 91.06 18.0058C90.549 18.1389 90.1236 18.479 89.7838 19.0261L87.7382 22.3207L86.7748 21.7226Z" fill="white"/>
<path d="M95.1229 27.2547L100.038 22.5495L100.803 23.3485L99.9733 24.1423C100.412 24.0067 100.835 23.9961 101.241 24.1106C101.655 24.2186 102.03 24.4479 102.365 24.7985C103.101 25.5671 103.238 26.3787 102.777 27.2334C103.23 27.0849 103.682 27.0716 104.135 27.1937C104.594 27.3094 105.005 27.556 105.366 27.9335C106.412 29.0257 106.288 30.1914 104.993 31.4306L101.929 34.3641L101.145 33.5449L104.168 30.6502C104.62 30.2178 104.873 29.8206 104.927 29.4587C104.994 29.0971 104.854 28.7343 104.505 28.3702C104.124 27.9724 103.68 27.7911 103.17 27.8262C102.661 27.8613 102.171 28.1048 101.699 28.5566L98.9179 31.219L98.1338 30.3998L101.158 27.5051C101.609 27.0726 101.862 26.6755 101.916 26.3136C101.984 25.952 101.843 25.5892 101.494 25.2251C101.107 24.8206 100.659 24.6359 100.15 24.671C99.6473 24.7128 99.16 24.9597 98.6881 25.4115L95.907 28.0738L95.1229 27.2547Z" fill="white"/>
<path d="M103.65 37.4009C103.282 36.8498 103.084 36.2921 103.055 35.7278C103.026 35.1635 103.154 34.6237 103.439 34.1083C103.736 33.5956 104.183 33.1397 104.781 32.7407C105.379 32.3416 105.968 32.1057 106.547 32.0328C107.14 31.9625 107.692 32.0489 108.202 32.2919C108.712 32.5349 109.151 32.9319 109.519 33.4831C109.882 34.0264 110.077 34.5803 110.106 35.1446C110.14 35.7166 110.009 36.259 109.711 36.7718C109.427 37.2871 108.986 37.7443 108.388 38.1433C107.79 38.5423 107.195 38.777 106.602 38.8473C106.023 38.9201 105.475 38.8312 104.96 38.5804C104.45 38.3374 104.013 37.9443 103.65 37.4009ZM104.407 36.8956C104.76 37.4235 105.228 37.7221 105.813 37.7916C106.406 37.856 107.052 37.6549 107.751 37.1885C108.457 36.7169 108.89 36.1976 109.05 35.6306C109.21 35.0636 109.114 34.5162 108.762 33.9884C108.404 33.4527 107.933 33.1502 107.348 33.0807C106.768 33.0189 106.125 33.2239 105.419 33.6954C104.72 34.1619 104.284 34.6773 104.111 35.2417C103.951 35.8087 104.05 36.36 104.407 36.8956Z" fill="white"/>
<path d="M105.93 40.8428L112.016 37.8014L112.51 38.7908L111.421 39.3352C112.318 39.2937 113.057 39.7593 113.637 40.732L113.856 41.0764L113.017 41.5896L112.623 40.9884C112.285 40.4374 111.882 40.0908 111.414 39.9488C110.955 39.8026 110.454 39.8651 109.912 40.1363L106.443 41.8697L105.93 40.8428Z" fill="white"/>
<path d="M109.04 48.2492C108.685 47.2361 108.7 46.3311 109.084 45.5344C109.477 44.7346 110.184 44.156 111.206 43.7986C111.867 43.5676 112.494 43.4964 113.089 43.5851C113.693 43.6707 114.211 43.8948 114.644 44.2574C115.089 44.6257 115.418 45.1138 115.631 45.7217C115.936 46.5939 115.893 47.3753 115.502 48.0659C115.119 48.7534 114.439 49.2681 113.461 49.6101L113.051 49.7533L111.36 44.9166C110.641 45.2076 110.155 45.6146 109.903 46.1379C109.66 46.658 109.658 47.2616 109.899 47.9488C110.034 48.3365 110.221 48.6865 110.459 48.9988C110.705 49.3081 111.021 49.5736 111.405 49.7952L110.781 50.4287C110.406 50.2334 110.061 49.9389 109.745 49.545C109.438 49.1481 109.203 48.7162 109.04 48.2492ZM114.847 46.0255C114.635 45.4176 114.277 45.0037 113.775 44.7837C113.273 44.5638 112.703 44.5309 112.065 44.6849L113.428 48.5833C114.071 48.3289 114.517 47.98 114.768 47.5365C115.021 47.1018 115.048 46.5981 114.847 46.0255Z" fill="white"/>
<path d="M111.208 57.2984C111.152 56.8351 111.19 56.4075 111.321 56.0157C111.463 55.6321 111.679 55.3148 111.969 55.0638C112.258 54.8128 112.597 54.664 112.987 54.6173C113.478 54.5583 113.882 54.6367 114.199 54.8524C114.518 55.0774 114.772 55.4746 114.963 56.0439C115.164 56.6214 115.325 57.4198 115.448 58.4392L115.501 58.884L115.932 58.8323C116.507 58.7633 116.904 58.5933 117.126 58.3223C117.357 58.0595 117.442 57.6686 117.38 57.1497C117.331 56.742 117.223 56.3554 117.057 55.9899C116.9 55.6233 116.668 55.2563 116.361 54.889L117.134 54.4014C117.427 54.7235 117.677 55.1258 117.886 55.6084C118.095 56.1003 118.228 56.5779 118.283 57.0412C118.388 57.9123 118.252 58.582 117.876 59.0501C117.501 59.5276 116.864 59.8203 115.965 59.9282L111.711 60.4388L111.585 59.3824L112.752 59.2422C112.333 59.114 111.985 58.8784 111.709 58.5355C111.433 58.2019 111.266 57.7896 111.208 57.2984ZM112.077 57.3774C112.144 57.9334 112.388 58.3646 112.811 58.6712C113.242 58.9766 113.754 59.0937 114.347 59.0225L114.764 58.9724L114.713 58.5415C114.623 57.7909 114.514 57.2023 114.388 56.7756C114.272 56.3572 114.115 56.0705 113.918 55.9155C113.731 55.7687 113.489 55.7132 113.193 55.7487C112.813 55.7944 112.518 55.9614 112.308 56.2498C112.1 56.5474 112.023 56.9233 112.077 57.3774Z" fill="white"/>
<path d="M111.614 65.5346C111.633 64.9935 111.771 64.522 112.027 64.1201C112.284 63.7274 112.625 63.4357 113.052 63.2451L111.821 63.2023L111.86 62.097L121.724 62.4398L121.684 63.5731L117.445 63.4258C117.839 63.6356 118.146 63.9498 118.365 64.3683C118.583 64.7868 118.684 65.2572 118.666 65.7796C118.645 66.3859 118.482 66.9079 118.177 67.3456C117.881 67.7929 117.463 68.1286 116.923 68.3526C116.392 68.5863 115.763 68.6905 115.035 68.6653C114.317 68.6403 113.697 68.4927 113.174 68.2223C112.66 67.9617 112.266 67.5978 111.993 67.1307C111.719 66.6729 111.593 66.1409 111.614 65.5346ZM112.532 65.3283C112.51 65.9626 112.716 66.4787 113.15 66.8767C113.594 67.275 114.236 67.4888 115.075 67.5179C115.924 67.5474 116.579 67.3788 117.04 67.0119C117.501 66.645 117.742 66.1444 117.765 65.5101C117.787 64.8759 117.58 64.3597 117.146 63.9617C116.711 63.5637 116.07 63.35 115.221 63.3205C114.382 63.2913 113.727 63.46 113.256 63.8266C112.795 64.1934 112.554 64.694 112.532 65.3283Z" fill="white"/>
<path d="M110.854 72.5318C110.976 71.8804 111.224 71.3427 111.597 70.9187C111.971 70.4948 112.439 70.1977 113.003 70.0276C113.574 69.8684 114.212 69.8548 114.919 69.9867C115.625 70.1187 116.211 70.3611 116.677 70.7139C117.15 71.0777 117.485 71.5247 117.68 72.0549C117.875 72.5851 117.912 73.1759 117.791 73.8273C117.671 74.4695 117.424 75.0026 117.05 75.4265C116.675 75.8597 116.202 76.1559 115.631 76.3151C115.068 76.4852 114.433 76.5043 113.726 76.3723C113.02 76.2404 112.43 75.9925 111.957 75.6288C111.491 75.2759 111.161 74.8298 110.968 74.2904C110.772 73.7602 110.735 73.174 110.854 72.5318ZM111.749 72.6988C111.632 73.3227 111.759 73.8639 112.129 74.3223C112.509 74.7824 113.111 75.0896 113.937 75.2438C114.772 75.3998 115.445 75.3308 115.955 75.0369C116.466 74.743 116.779 74.2841 116.896 73.6602C117.014 73.0271 116.888 72.4814 116.518 72.023C116.146 71.5737 115.543 71.2712 114.708 71.1152C113.882 70.961 113.21 71.0254 112.692 71.3084C112.182 71.6023 111.867 72.0658 111.749 72.6988Z" fill="white"/>
<path d="M109.278 78.725C109.806 77.1792 110.922 76.6972 112.627 77.279L116.628 78.6447L116.262 79.7179L112.274 78.3568C111.7 78.1608 111.237 78.131 110.884 78.2672C110.529 78.4122 110.266 78.7365 110.094 79.24C109.907 79.7876 109.936 80.2955 110.18 80.7636C110.434 81.2347 110.865 81.5742 111.475 81.7822L115.132 83.0303L114.765 84.1035L108.326 81.9059L108.683 80.8591L109.77 81.2299C109.45 80.8941 109.248 80.5046 109.163 80.0612C109.083 79.6297 109.122 79.1843 109.278 78.725Z" fill="white"/>
<path d="M106.497 85.4463C106.842 84.7218 107.291 84.2687 107.842 84.0872C108.403 83.9097 109.045 83.9936 109.77 84.339L112.992 85.8752L113.565 84.6747L114.361 85.0542L113.788 86.2548L115.671 87.1524L115.183 88.176L113.3 87.2784L112.373 89.2246L111.576 88.845L112.504 86.8989L109.383 85.4108C108.903 85.1819 108.488 85.1083 108.139 85.19C107.798 85.2757 107.519 85.5461 107.302 86.001C107.238 86.1358 107.191 86.2787 107.16 86.4295C107.13 86.5804 107.105 86.7186 107.086 86.8442L106.219 86.6476C106.212 86.51 106.233 86.3238 106.283 86.0891C106.333 85.8543 106.404 85.6401 106.497 85.4463Z" fill="white"/>
<path d="M102.437 92.0336C102.894 91.3743 103.41 90.9997 103.984 90.9096C104.566 90.8248 105.186 91.0113 105.845 91.4691L108.778 93.5054L109.536 92.4129L110.261 92.916L109.502 94.0084L111.216 95.1982L110.569 96.1297L108.855 94.9399L107.626 96.7108L106.901 96.2077L108.131 94.4368L105.291 92.4645C104.854 92.161 104.456 92.0215 104.099 92.0457C103.748 92.0753 103.43 92.2971 103.142 92.7111C103.057 92.8338 102.987 92.9671 102.933 93.111C102.878 93.255 102.832 93.3874 102.793 93.5084L101.968 93.1743C101.984 93.0374 102.035 92.8571 102.122 92.6335C102.209 92.4099 102.314 92.21 102.437 92.0336Z" fill="white"/>
<path d="M101.939 93.0385L109.359 99.5465L108.612 100.399L105.465 97.6389C105.626 98.0781 105.651 98.5163 105.541 98.9534C105.431 99.4037 105.211 99.8183 104.878 100.197C103.814 101.411 102.608 101.427 101.26 100.246L98.0711 97.4487L98.8188 96.5961L101.955 99.347C102.433 99.7655 102.863 99.9754 103.247 99.9767C103.631 99.9912 104.002 99.7949 104.359 99.388C104.771 98.9178 104.953 98.4132 104.905 97.874C104.857 97.348 104.591 96.8727 104.107 96.4481L101.191 93.8911L101.939 93.0385Z" fill="white"/>
<path d="M95.0092 100.023C95.8238 99.3241 96.672 99.0084 97.5538 99.0758C98.4416 99.1503 99.238 99.5984 99.943 100.42C100.399 100.951 100.694 101.51 100.828 102.096C100.967 102.689 100.947 103.254 100.768 103.789C100.587 104.338 100.252 104.822 99.7629 105.242C99.0616 105.843 98.3182 106.087 97.5325 105.974C96.753 105.868 96.0259 105.422 95.3514 104.636L95.0688 104.307L98.9577 100.97C98.425 100.407 97.8691 100.103 97.29 100.058C96.717 100.021 96.1542 100.24 95.6017 100.714C95.29 100.981 95.032 101.282 94.8277 101.617C94.6294 101.96 94.4969 102.35 94.4303 102.788L93.6132 102.438C93.6586 102.018 93.8072 101.589 94.0591 101.152C94.317 100.721 94.6337 100.345 95.0092 100.023ZM99.1947 104.622C99.6835 104.203 99.9389 103.719 99.9609 103.172C99.9829 102.624 99.806 102.081 99.4302 101.543L96.2957 104.232C96.7667 104.738 97.2542 105.026 97.7584 105.098C98.2555 105.176 98.7343 105.017 99.1947 104.622Z" fill="white"/>
<path d="M89.4003 104.617L92.3964 110.726L91.4034 111.213L90.8979 110.182C90.8943 110.641 90.7764 111.048 90.5442 111.401C90.316 111.762 89.984 112.049 89.5483 112.263C88.593 112.732 87.7778 112.617 87.1028 111.919C87.1075 112.395 86.9831 112.83 86.7296 113.225C86.4803 113.628 86.121 113.944 85.6517 114.174C84.2942 114.84 83.2209 114.369 82.4318 112.76L80.5638 108.951L81.582 108.452L83.4253 112.21C83.7006 112.771 84.0026 113.133 84.3311 113.294C84.6553 113.467 85.0437 113.443 85.4962 113.221C85.9906 112.979 86.2982 112.61 86.4188 112.114C86.5395 111.618 86.456 111.077 86.1683 110.49L84.473 107.034L85.4911 106.534L87.3344 110.293C87.6098 110.854 87.9117 111.215 88.2402 111.377C88.5645 111.55 88.9529 111.526 89.4054 111.304C89.9081 111.058 90.2199 110.686 90.3406 110.191C90.4528 109.699 90.3652 109.16 90.0775 108.573L88.3821 105.117L89.4003 104.617Z" fill="white"/>
<path d="M78.1216 109.388C78.5701 109.259 78.9983 109.228 79.406 109.296C79.8074 109.375 80.1551 109.537 80.4491 109.783C80.743 110.028 80.9441 110.34 81.0524 110.716C81.189 111.192 81.1762 111.603 81.0139 111.951C80.8426 112.301 80.4911 112.616 79.9595 112.895C79.4215 113.185 78.6591 113.472 77.6724 113.756L77.2418 113.88L77.3617 114.297C77.5215 114.853 77.7528 115.219 78.0556 115.394C78.352 115.581 78.7514 115.602 79.2537 115.457C79.6484 115.344 80.0129 115.176 80.3472 114.954C80.6841 114.741 81.0093 114.453 81.3228 114.091L81.9277 114.777C81.6564 115.117 81.2992 115.428 80.856 115.711C80.4039 115.996 79.9536 116.203 79.5051 116.332C78.6618 116.574 77.9791 116.547 77.4569 116.251C76.9257 115.956 76.5351 115.374 76.2851 114.504L75.102 110.387L76.1246 110.093L76.4494 111.223C76.509 110.789 76.686 110.408 76.9803 110.08C77.2657 109.755 77.6462 109.525 78.1216 109.388ZM78.1825 110.259C77.6443 110.414 77.2576 110.724 77.0224 111.19C76.7898 111.664 76.7559 112.189 76.9209 112.763L77.0369 113.167L77.454 113.047C78.1806 112.838 78.7444 112.637 79.1454 112.444C79.54 112.263 79.798 112.062 79.9195 111.843C80.0345 111.635 80.0508 111.388 79.9684 111.101C79.8627 110.733 79.6508 110.468 79.3326 110.307C79.0054 110.149 78.6221 110.133 78.1825 110.259Z" fill="white"/>
<path d="M71.0114 110.995C71.538 110.92 72.0475 110.922 72.5399 111.002C73.0322 111.082 73.4501 111.235 73.7934 111.459L73.5465 112.3C73.1754 112.08 72.782 111.934 72.3662 111.862C71.9424 111.8 71.5227 111.799 71.1069 111.858C70.5803 111.934 70.197 112.088 69.9569 112.32C69.7168 112.553 69.6206 112.835 69.6684 113.168C69.7055 113.427 69.8224 113.617 70.0192 113.74C70.2172 113.872 70.5116 113.952 70.9023 113.981L72.2032 114.077C73.3846 114.162 74.0422 114.671 74.1761 115.604C74.2636 116.214 74.0937 116.738 73.6663 117.177C73.2297 117.617 72.6187 117.893 71.8334 118.006C71.3715 118.072 70.922 118.061 70.4851 117.973C70.0402 117.895 69.6593 117.738 69.3424 117.5L69.6032 116.657C69.9069 116.868 70.2482 117.012 70.6271 117.09C70.998 117.178 71.359 117.197 71.7101 117.146C72.2275 117.072 72.6055 116.914 72.8443 116.672C73.0831 116.431 73.1786 116.144 73.1309 115.811C73.0566 115.294 72.6671 115.01 71.9622 114.96L70.6633 114.878C70.0535 114.834 69.5756 114.69 69.2296 114.447C68.885 114.214 68.6782 113.857 68.6092 113.377C68.5204 112.758 68.695 112.233 69.1329 111.802C69.5722 111.381 70.1984 111.112 71.0114 110.995Z" fill="white"/>
<path d="M64.7648 111.516C65.5669 111.485 66.1765 111.672 66.5938 112.076C67.0114 112.489 67.2356 113.097 67.2666 113.899L67.4044 117.467L68.7334 117.415L68.7674 118.297L67.4384 118.348L67.5189 120.432L66.3857 120.476L66.3052 118.392L64.1508 118.475L64.1168 117.594L66.2712 117.51L66.1378 114.055C66.1173 113.523 65.9897 113.122 65.755 112.851C65.5208 112.589 65.1518 112.468 64.6482 112.487C64.499 112.493 64.3505 112.517 64.2027 112.56C64.0549 112.604 63.9211 112.646 63.8013 112.688L63.572 111.828C63.6907 111.758 63.8655 111.691 64.0965 111.626C64.3275 111.561 64.5503 111.524 64.7648 111.516Z" fill="white"/>
<path d="M60.0538 111.352C61.1236 111.439 61.9448 111.819 62.5175 112.493C63.0895 113.176 63.3316 114.058 63.244 115.137C63.1874 115.834 62.998 116.437 62.6759 116.945C62.353 117.462 61.938 117.845 61.4308 118.094C60.9136 118.351 60.3341 118.454 59.6922 118.402C58.7712 118.327 58.0744 117.971 57.6018 117.333C57.1284 116.705 56.9336 115.875 57.0175 114.842L57.0526 114.409L62.1598 114.824C62.1852 114.049 62.0099 113.44 61.6338 112.997C61.257 112.564 60.7058 112.318 59.9801 112.259C59.5708 112.226 59.1752 112.255 58.7933 112.345C58.4106 112.445 58.0401 112.626 57.6818 112.887L57.3556 112.06C57.686 111.797 58.0953 111.6 58.5833 111.472C59.0706 111.352 59.5607 111.312 60.0538 111.352ZM59.7322 117.562C60.3741 117.615 60.8974 117.456 61.3019 117.086C61.7065 116.716 61.9678 116.208 62.0858 115.562L57.9693 115.228C57.9414 115.919 58.0793 116.469 58.3833 116.877C58.6779 117.285 59.1276 117.513 59.7322 117.562Z" fill="white"/>
<path d="M56.0043 111.019L54.6021 117.677L53.5199 117.449L53.7709 116.257C53.2454 116.985 52.4215 117.275 51.2991 117.124L50.8932 117.081L51.0129 116.105L51.7289 116.17C52.3706 116.248 52.8924 116.148 53.2943 115.87C53.6943 115.602 53.9567 115.17 54.0818 114.577L54.881 110.782L56.0043 111.019Z" fill="white"/>
<path d="M51.2984 109.959L50.8833 111.326L49.5169 110.911L49.932 109.544L51.2984 109.959Z" fill="white"/>
<path d="M47.733 108.824L47.2163 110.155L45.885 109.639L46.4017 108.307L47.733 108.824Z" fill="white"/>
<path d="M44.652 107.59L44.0423 108.881L42.751 108.271L43.3607 106.98L44.652 107.59Z" fill="white"/>
</svg>
