<svg width="178" height="33" viewBox="0 0 178 33" fill="none" xmlns="http://www.w3.org/2000/svg">
<path d="M177.671 19.8334C177.601 19.7299 177.493 19.6579 177.37 19.6331C177.247 19.6084 177.119 19.6328 177.014 19.7012C177.014 19.7012 175.908 20.4284 174.537 21.2595L174.375 21.3539C173.589 21.8262 171.517 23.0917 170.802 22.8462C170.769 22.8367 170.739 22.8185 170.716 22.7936C170.692 22.7686 170.676 22.7378 170.669 22.7045C170.464 22.1425 171.145 20.9762 171.622 20.2017C172.165 19.295 172.522 18.7 172.179 18.242C172.116 18.1581 172.037 18.0877 171.946 18.035C171.855 17.9822 171.755 17.9482 171.65 17.935C171.055 17.8548 170.321 18.4073 169.216 19.2478L168.592 19.72L167.64 20.4378C166.516 21.3114 163.51 23.6253 162.876 23.5498C162.822 23.5219 162.772 23.4852 162.729 23.4412C162.729 23.2239 163.348 22.4967 163.958 21.7978L164.22 21.4909C165.896 19.5548 165.172 18.5773 165.077 18.4734C165.024 18.4099 164.955 18.3613 164.878 18.3323C164.8 18.3033 164.716 18.295 164.634 18.3081C163.543 18.5133 162.481 18.8494 161.471 19.3092C161.024 19.5123 160.423 19.8475 159.785 20.197C158.79 20.7448 156.751 21.8734 156.199 21.8167C156.108 21.3445 156.789 19.6492 157.708 18.0389C157.777 17.9337 157.801 17.8057 157.775 17.6831C157.748 17.5604 157.674 17.4532 157.568 17.3849C157.462 17.3166 157.333 17.293 157.209 17.3191C157.085 17.3452 156.977 17.419 156.908 17.5242L155.708 19.2478C155.047 19.5517 154.41 19.9053 153.803 20.3056L153.412 20.5653C152.483 21.2028 149.644 23.1389 148.678 22.8839C148.646 22.8802 148.616 22.8682 148.591 22.8491C148.566 22.83 148.546 22.8045 148.535 22.7753C148.463 22.6384 148.235 21.7742 150.526 18.2089C150.669 17.9917 150.907 17.6187 150.526 17.3589C150.145 17.0992 149.945 17.3589 149.549 17.8831C148.12 19.772 143.414 21.3445 142.79 21.0375C142.557 20.8723 142.914 19.8806 143.509 19.04C143.569 18.9557 143.599 18.8543 143.595 18.7514C143.592 18.6484 143.554 18.5495 143.488 18.4698C143.422 18.3901 143.332 18.3339 143.231 18.3099C143.13 18.2858 143.024 18.2951 142.928 18.3364C140.925 19.1488 138.84 19.7441 136.708 20.112C133.964 20.622 132.521 20.06 131.997 19.772C133.307 17.9236 134.739 16.1631 136.284 14.502C140.942 9.40671 149.182 1.71893 149.268 1.64337C149.362 1.55758 149.417 1.43849 149.422 1.31229C149.427 1.1861 149.381 1.06313 149.294 0.970455C149.208 0.877777 149.088 0.822974 148.96 0.818104C148.833 0.813233 148.709 0.858693 148.616 0.944483C148.53 1.02004 140.275 8.73143 135.574 13.8692C133.886 15.6883 132.336 17.6298 130.94 19.6775C129.768 20.1167 125.876 21.5664 124.271 22.0717C123.342 22.355 122.799 22.3031 122.671 22.1237C122.542 21.9442 122.232 21.1037 125.157 17.2598C129.577 11.4562 137.417 4.61837 137.498 4.54754C137.548 4.50755 137.59 4.45793 137.62 4.40166C137.65 4.34539 137.669 4.28363 137.674 4.22012C137.68 4.15661 137.672 4.09265 137.652 4.0321C137.632 3.97155 137.6 3.91567 137.557 3.86781C137.515 3.81996 137.463 3.78112 137.405 3.75365C137.347 3.72618 137.284 3.71064 137.22 3.70797C137.155 3.70529 137.091 3.71554 137.031 3.7381C136.971 3.76065 136.916 3.79505 136.87 3.83921C136.789 3.91004 128.877 10.8092 124.4 16.6884C121.266 20.8014 121.466 22.0717 121.89 22.6667C122.041 22.8573 122.237 23.0074 122.462 23.1031C122.687 23.1988 122.932 23.2371 123.176 23.2145C123.646 23.2019 124.112 23.1191 124.557 22.9689C125.848 22.5675 128.482 21.6042 130.149 20.9856C129.225 22.6431 128.772 24.1164 129.196 25.1175C129.374 25.5429 129.676 25.9054 130.065 26.1581C130.453 26.4107 130.909 26.5418 131.373 26.5342C132.416 26.5342 133.802 25.8637 134.555 24.0409C134.732 23.6838 134.832 23.2939 134.848 22.8963C134.865 22.4986 134.797 22.102 134.65 21.7317C134.575 21.5729 134.481 21.4238 134.369 21.2878C135.21 21.3033 136.049 21.2305 136.874 21.0706C138.63 20.7506 140.357 20.2976 142.042 19.7153C141.723 20.4614 141.566 21.3539 142.228 21.8356C143.1 22.4542 146.134 21.4673 148.32 20.1214C147.572 21.6137 147.368 22.6242 147.672 23.2287C147.745 23.3785 147.851 23.5102 147.982 23.614C148.113 23.7178 148.266 23.7911 148.43 23.8284C149.649 24.14 151.797 22.832 153.941 21.3728L154.322 21.1178C154.737 20.8432 155.167 20.5894 155.608 20.3575C155.294 21.2548 155.17 22.067 155.517 22.4731C156.175 23.2617 157.766 22.4448 160.281 21.0564C160.9 20.7117 161.486 20.3906 161.9 20.2017C162.702 19.8394 163.538 19.5578 164.396 19.3612C164.265 19.9479 163.967 20.4853 163.539 20.91L163.277 21.2123C162.238 22.4023 161.719 23.002 161.848 23.6348C161.884 23.8009 161.96 23.9564 162.067 24.0891C162.174 24.2218 162.311 24.3281 162.467 24.3998C162.599 24.4738 162.749 24.5113 162.9 24.5084C163.853 24.5084 165.491 23.3703 168.273 21.2028L169.188 20.4945L169.821 20.0223C170.276 19.6585 170.754 19.3226 171.25 19.0164C171.136 19.2384 170.969 19.517 170.831 19.7437C170.212 20.7778 169.435 22.067 169.797 23.0492C169.855 23.2131 169.949 23.3621 170.073 23.4847C170.196 23.6074 170.346 23.7007 170.512 23.7575C171.555 24.1212 173.251 23.1767 174.894 22.1803L175.056 22.0859C176.447 21.2453 177.552 20.5134 177.566 20.5087C177.619 20.4721 177.664 20.4253 177.698 20.3711C177.732 20.3169 177.754 20.2564 177.764 20.1932C177.774 20.1301 177.771 20.0657 177.755 20.0038C177.739 19.942 177.71 19.884 177.671 19.8334ZM133.664 23.6537C133.088 25.0703 132.092 25.5425 131.359 25.5425C131.082 25.5508 130.809 25.4758 130.576 25.3274C130.343 25.1791 130.161 24.9643 130.054 24.7114C129.906 24.3667 129.753 23.2948 131.406 20.6456H131.44C132.33 20.9431 133.44 21.3162 133.788 22.0623C133.884 22.3231 133.923 22.6014 133.902 22.8784C133.88 23.1554 133.799 23.4246 133.664 23.6678V23.6537Z" fill="white"/>
<path d="M121.923 17.7887C121.919 17.7266 121.903 17.6659 121.876 17.61C121.848 17.5541 121.81 17.5041 121.763 17.4628C121.716 17.4216 121.662 17.3899 121.602 17.3697C121.543 17.3494 121.48 17.341 121.418 17.3448C121.375 17.3448 120.889 17.3779 119.922 17.4865C120.927 14.8326 124.685 4.64203 123.661 2.81453C123.606 2.71116 123.529 2.62089 123.435 2.54996C123.342 2.47902 123.233 2.42912 123.118 2.4037C121.213 2.03064 115.369 9.65703 112.639 13.8268C111.452 15.6966 110.366 17.6275 109.386 19.6115C106.619 20.5559 104.361 21.5381 104.209 21.609C104.11 21.6536 104.029 21.7304 103.98 21.8266C103.932 21.9227 103.918 22.0326 103.94 22.1378C103.963 22.2431 104.021 22.3375 104.106 22.4053C104.19 22.4732 104.295 22.5104 104.404 22.5109C104.471 22.5106 104.538 22.4961 104.599 22.4684C104.632 22.4684 106.433 21.6562 108.781 20.8251C106.452 25.5473 104.599 30.1137 104.571 30.1798C104.523 30.2963 104.524 30.4266 104.574 30.5422C104.624 30.6578 104.717 30.7491 104.835 30.7961C104.952 30.843 105.084 30.8418 105.2 30.7926C105.317 30.7435 105.409 30.6505 105.456 30.534C105.485 30.4584 107.552 25.382 110.058 20.3906C111.649 19.8446 113.282 19.4231 114.94 19.1298C116.369 18.9031 117.522 18.7331 118.465 18.6104C116.083 25.0137 114.545 30.2931 114.526 30.3498C114.492 30.47 114.507 30.5986 114.569 30.7074C114.631 30.8163 114.733 30.8965 114.854 30.9306C114.898 30.9375 114.943 30.9375 114.988 30.9306C115.094 30.9348 115.198 30.9036 115.285 30.842C115.371 30.7804 115.434 30.6919 115.464 30.5906C115.464 30.534 117.069 25.0373 119.551 18.4593C120.837 18.3129 121.456 18.2704 121.456 18.2704C121.518 18.2691 121.58 18.2557 121.637 18.2308C121.695 18.206 121.747 18.1701 121.79 18.1254C121.833 18.0807 121.867 18.0279 121.89 17.9701C121.913 17.9124 121.924 17.8507 121.923 17.7887ZM114.802 18.1948C113.406 18.4377 112.027 18.7738 110.677 19.2006C111.587 17.444 112.539 15.744 113.454 14.3368C117.45 8.19787 121.818 3.56064 122.861 3.3387C123.209 4.28314 121.842 9.7987 118.931 17.4109C118.931 17.477 118.884 17.5431 118.855 17.6093C117.831 17.7368 116.488 17.9445 114.802 18.1948Z" fill="white"/>
<path d="M98.6067 19.7578C96.308 19.6823 94.0152 19.4837 91.7382 19.1628C90.1663 18.9031 89.7472 18.2183 89.5852 17.9492C89.5389 17.8381 89.4568 17.7454 89.3516 17.6855C89.2464 17.6257 89.1242 17.6022 89.0041 17.6186C88.6564 17.6847 88.5993 17.9822 88.5278 18.2986L88.5469 18.4167C88.1134 19.4131 86.5225 20.485 85.2127 20.9997C84.8043 21.2126 84.3438 21.3075 83.8837 21.2736C83.698 21.1697 83.6551 20.5889 83.6265 20.2017C83.5837 19.6303 83.5456 19.0919 83.1502 18.8086C83.0498 18.7384 82.9348 18.6914 82.8136 18.671C82.6925 18.6505 82.5682 18.6572 82.45 18.6906C81.6546 18.8606 80.459 19.5736 79.192 20.3244C78.1156 20.9619 76.3103 22.0433 75.9245 21.93C75.572 21.6278 75.9674 20.4708 76.4008 19.7531C76.4641 19.6463 76.4826 19.5192 76.4524 19.3991C76.4221 19.279 76.3454 19.1755 76.2389 19.1108C76.1314 19.0462 76.0024 19.0262 75.8802 19.0554C75.758 19.0846 75.6523 19.1606 75.5863 19.2667L74.9814 20.2111C74.5908 20.74 69.6467 22.8697 66.6792 22.8839C65.9076 22.8839 65.3884 22.7422 65.1836 22.4731C65.0606 22.2851 64.977 22.0745 64.9377 21.8539C64.8984 21.6332 64.9043 21.407 64.955 21.1886C66.5506 20.9383 68.5654 20.2442 69.0417 19.1769C69.1478 18.9107 69.1699 18.6188 69.1053 18.3397C69.0407 18.0607 68.8923 17.8077 68.6797 17.6139C67.9843 16.8725 66.9269 16.9339 65.9123 17.7744C65.118 18.4611 64.5214 19.3443 64.1833 20.3339C64.0166 20.3339 63.8594 20.3339 63.707 20.3339C62.783 20.3339 61.1301 20.9147 59.3773 21.5333C58.015 22.0056 55.7573 22.8178 55.2191 22.6808C55.1143 22.2086 56.1717 20.4661 57.5054 18.9408C57.546 18.8937 57.5769 18.8391 57.5963 18.7801C57.6157 18.7212 57.6231 18.659 57.6183 18.5972C57.6134 18.5353 57.5963 18.4751 57.5679 18.4198C57.5396 18.3645 57.5005 18.3153 57.453 18.275C57.4054 18.2347 57.3504 18.2041 57.2909 18.1849C57.2314 18.1657 57.1687 18.1583 57.1063 18.1631C57.044 18.1679 56.9832 18.1849 56.9274 18.213C56.8717 18.2411 56.822 18.2798 56.7814 18.3269C55.8287 19.4225 53.7091 22.1047 54.4284 23.2239C54.9523 24.055 56.5956 23.5214 59.6964 22.4258C61.2968 21.8592 62.9497 21.2783 63.707 21.2783H63.9737C63.8998 21.8956 64.0593 22.5181 64.4215 23.0256C64.8168 23.5497 65.5694 23.8142 66.6554 23.8142H66.9555C69.2608 23.715 73.0571 22.4494 74.8528 21.4294C74.8342 21.6515 74.8676 21.8748 74.9502 22.082C75.0328 22.2892 75.1625 22.4747 75.3291 22.6242C76.0483 23.2333 77.3916 22.4872 79.7065 21.1083C80.6204 20.5046 81.5978 20.0011 82.6215 19.6067C82.6617 19.8188 82.6871 20.0333 82.6977 20.2489C82.7453 20.9006 82.8073 21.7175 83.4312 22.0717C83.8171 22.2936 84.441 22.2511 85.2889 21.9631C86.7654 21.4483 88.5755 20.2914 89.2947 19.0447C89.9429 19.6167 90.7526 19.9777 91.6143 20.0789C93.9334 20.4109 96.2694 20.6143 98.6114 20.6881C98.7377 20.6881 98.8589 20.6383 98.9482 20.5497C99.0376 20.4612 99.0877 20.3411 99.0877 20.2158C99.084 20.0922 99.0315 19.975 98.9416 19.8894C98.8516 19.8037 98.7314 19.7565 98.6067 19.7578ZM66.503 18.5064C66.7676 18.2474 67.1106 18.0815 67.4794 18.0342C67.5699 18.0343 67.6593 18.0537 67.7415 18.0912C67.8237 18.1287 67.8968 18.1833 67.9557 18.2514C68.2463 18.5583 68.1748 18.7236 68.1415 18.7992C67.8986 19.3517 66.5697 19.9042 65.2455 20.1733C65.5371 19.5335 65.9663 18.9645 66.503 18.5064Z" fill="white"/>
<path d="M62.931 11.7631C61.9412 12.5302 61.1099 13.4794 60.4828 14.5586C60.4501 14.6122 60.4285 14.6716 60.4192 14.7334C60.41 14.7953 60.4132 14.8584 60.4287 14.919C60.4442 14.9796 60.4717 15.0366 60.5096 15.0866C60.5475 15.1366 60.595 15.1787 60.6495 15.2103C60.723 15.2535 60.8069 15.2764 60.8924 15.2764C60.975 15.2764 61.0563 15.255 61.1281 15.2145C61.1999 15.1739 61.2599 15.1155 61.302 15.045C61.8636 14.0819 62.6018 13.2315 63.4788 12.5375C63.5815 12.4653 63.6511 12.3557 63.6726 12.2327C63.694 12.1097 63.6654 11.9833 63.5931 11.8811C63.521 11.7786 63.4108 11.7085 63.2867 11.6864C63.1626 11.6643 63.0347 11.6919 62.931 11.7631Z" fill="white"/>
<path d="M65.2837 4.48142C65.3249 4.43243 65.3556 4.37568 65.374 4.31459C65.3925 4.2535 65.3983 4.18934 65.391 4.12598C65.3838 4.06261 65.3637 4.00136 65.3319 3.94591C65.3001 3.89046 65.2574 3.84197 65.2062 3.80335C65.155 3.76473 65.0965 3.73679 65.0341 3.72121C64.9717 3.70564 64.9068 3.70275 64.8433 3.71272C64.7797 3.72268 64.7189 3.74531 64.6644 3.77922C64.61 3.81313 64.563 3.85763 64.5263 3.91003C57.3054 13.3498 45.7452 28.0689 42.8206 30.907C43.5875 27.4172 48.7936 13.5906 52.2326 4.84975C52.2587 4.79149 52.2726 4.7286 52.2735 4.66487C52.2743 4.60114 52.2622 4.53789 52.2378 4.47894C52.2134 4.41998 52.1771 4.36654 52.1313 4.32183C52.0855 4.27712 52.031 4.24206 51.9712 4.21878C51.9114 4.19549 51.8474 4.18446 51.7831 4.18634C51.7189 4.18822 51.6557 4.20298 51.5973 4.22973C51.5389 4.25647 51.4867 4.29465 51.4436 4.34197C51.4005 4.38928 51.3675 4.44475 51.3467 4.50503C51.3467 4.57114 48.7317 11.1539 46.2834 17.7603C41.2011 31.3981 41.6155 31.8089 41.949 32.1395C42.0521 32.2393 42.1906 32.2953 42.3348 32.2953H42.3777C42.8063 32.2623 43.5256 32.215 54.5618 18.2609C59.968 11.442 65.2313 4.54753 65.2837 4.48142Z" fill="white"/>
<path d="M29.0077 17.4723H0.428711V18.4167H29.0077V17.4723Z" fill="white"/>
</svg>
