<svg width="19" height="16" viewBox="0 0 19 16" fill="none" xmlns="http://www.w3.org/2000/svg">
<path d="M0.32298 7.67194L4.53638 9.25234L6.16722 14.5232C6.27157 14.8608 6.68233 14.9856 6.95497 14.7616L9.30359 12.8374C9.54978 12.6358 9.90044 12.6258 10.1577 12.8134L14.3938 15.9042C14.6855 16.1173 15.0986 15.9567 15.1718 15.6025L18.2749 0.601498C18.3548 0.214607 17.9765 -0.108149 17.61 0.0343316L0.318043 6.73822C-0.108685 6.90361 -0.104967 7.51078 0.32298 7.67194ZM5.9044 8.41105L14.139 3.31415C14.2869 3.22282 14.4392 3.42392 14.3121 3.54239L7.51622 9.89093C7.27735 10.1144 7.12326 10.4134 7.07962 10.738L6.84812 12.4621C6.81747 12.6923 6.4957 12.7152 6.43249 12.4924L5.54216 9.34845C5.44018 8.98986 5.58879 8.60683 5.9044 8.41105Z" fill="#414042"/>
</svg>
