<svg width="150" height="40" viewBox="0 0 150 40" fill="none" xmlns="http://www.w3.org/2000/svg">
<path d="M44.1536 1.14142C35.5243 1.2034 28.4658 10.8386 28.4658 19.2427C28.4658 28.0867 33.64 38.8749 44.1536 38.8398C54.6673 38.8048 60.1242 27.1904 60.1242 19.2427C60.1242 10.4639 52.783 1.07944 44.1536 1.14142ZM44.1536 1.47106C51.376 1.47106 53.3245 9.48456 53.3245 19.2427C53.3245 32.1184 50.9741 38.4707 44.1536 38.4585C37.3332 38.4464 35.1143 33.2474 35.1143 19.2427C35.1143 10.4699 36.9312 1.47106 44.1536 1.47106Z" fill="white" fill-opacity="0.24"/>
<path d="M62.9738 19.4804C62.9351 9.91782 70.5532 1.44721 77.0021 1.02695C79.3315 0.861154 82.3258 1.93281 84.0739 2.69622C85.3432 3.25057 87.9345 2.44817 88.3946 0.976074H88.6455V14.0021H88.3946C88.3946 13.4468 85.9934 1.35444 77.0021 1.35444C70.3608 1.35444 69.7193 13.0863 69.7193 19.4804C69.7193 25.8745 69.9127 38.5327 77.6628 38.5327C81.4171 38.5327 84.1961 36.8825 84.9165 33.5442V23.3936H81.7652V22.9612H93.9802V23.3936H90.9674V38.2337H90.7221C90.7221 38.2337 90.2323 36.0925 87.7469 36.0996C84.5703 36.1088 81.5745 38.8814 77.9227 38.8476C68.265 38.7584 63.0125 29.0429 62.9738 19.4804V19.4804Z" fill="white" fill-opacity="0.24"/>
<path d="M4.77505 2.4245H0.97168V1.995H14.2951V2.4245H10.9526L20.4725 28.3972C23.4494 19.1898 25.7555 12.3837 28.859 2.4245H25.5529V1.995H32.5877V2.4245H29.3841L17.8136 38.6615L4.77505 2.4245Z" fill="white" fill-opacity="0.24"/>
<path d="M95.8455 29.7897L95.7853 2.38283H92.165V1.97229H105.503V2.38283H101.885L101.965 32.433C102.766 35.874 104.19 38.485 109.055 38.5239C113.92 38.5627 117.228 35.6325 118.457 31.6279V2.38283H114.316L114.316 1.98438H148.212L148.283 15.1408H147.957C147.328 6.64619 144.066 3.43584 138.36 2.49927C136.396 2.17699 134.337 2.4159 131.733 2.39556V19.1866C134 19.3626 136.415 19.2186 138.043 17.8141C139.523 16.5369 139.942 13.5861 140.051 12.3873H140.337V27.0071H140.027C139.937 27.0071 139.818 23.3383 138.043 21.5977C136.256 19.8457 133.981 19.415 131.733 19.8324V37.7689C134.909 37.7689 137.44 38.0392 139.639 37.4336C146.322 35.5929 148.675 29.9284 148.657 24.2472H149.029V38.1935H122.441V37.7689H125.447V2.38283H118.952V31.6279C118.216 34.4261 115.525 39.0554 108.63 39.0238C102.218 38.9944 95.8593 36.0906 95.8455 29.7897V29.7897Z" fill="white" fill-opacity="0.24"/>
</svg>
