<svg width="177" height="40" viewBox="0 0 177 40" fill="none" xmlns="http://www.w3.org/2000/svg">
<path d="M35.4885 0.0289663C28.32 0.0289663 23.0985 9.32658 23.0985 20.0724C23.0985 31.05 28.6445 40 35.4885 40C42.3325 40 47.908 31.05 47.908 20.0724C47.8785 8.97901 42.3325 0.0289663 35.4885 0.0289663ZM39.707 37.7697C38.6155 39.3338 37.052 39.7104 35.4885 39.7104C33.984 39.7104 32.4205 39.3338 31.329 37.7697C29.5 35.134 28.7035 30.9051 28.7035 20.0724C28.7035 10.5431 29.5 5.01087 31.329 2.37509C32.4205 0.782045 33.9545 0.434468 35.4885 0.434468C37.052 0.434468 38.6155 0.724117 39.707 2.37509C41.536 5.01087 42.3325 10.5431 42.3325 20.0724C42.3325 30.9051 41.536 35.134 39.707 37.7697ZM66.5225 1.10066V12.1941C66.5225 12.281 66.375 12.281 66.375 12.1941C66.375 7.1832 63.8085 1.27444 59.059 1.3034H55.283C55.1355 1.3034 55.047 1.36134 55.047 1.50616V19.3483H55.696C58.764 19.3483 60.947 15.8146 60.947 12.1361C60.947 12.0492 61.0945 12.0492 61.0945 12.1361V26.8791C61.0945 26.966 60.947 26.966 60.947 26.8791C60.947 23.2295 58.764 19.6669 55.696 19.6669H55.047V38.5518C55.047 38.6966 55.1355 38.7545 55.283 38.7545H58.646C58.7345 38.7545 58.7935 38.8414 58.7935 38.9283C58.7935 39.0152 58.7345 39.1021 58.646 39.1021H46.4035C46.3445 39.1021 46.2855 39.0152 46.2855 38.9283C46.2855 38.8414 46.3445 38.7835 46.4035 38.7545H49.7665C49.973 38.7545 50.0025 38.6966 50.0025 38.5518V1.50616C50.0025 1.36134 49.914 1.3034 49.7665 1.3034H46.433C46.3445 1.3034 46.315 1.21651 46.315 1.12961C46.315 1.04272 46.3445 0.955834 46.433 0.955834H66.493C66.493 0.955834 66.5225 1.04273 66.5225 1.10066ZM18.054 13.7292C18.644 13.4975 19.2045 13.1499 19.529 12.7444C20.6795 11.6148 21.299 10.3114 21.299 9.09486C21.299 7.87835 20.768 6.71977 19.6175 5.73498C19.0275 5.24258 18.467 4.31571 18.467 3.15713C18.467 1.44822 19.6175 0 21.0335 0C22.8035 0 23.718 1.50616 23.7475 3.99711C23.7475 7.00942 21.0335 12.8602 18.054 13.9609C17.995 14.0478 17.995 13.7871 18.054 13.7292ZM21.3285 26.2419V38.8704C21.3285 39.0152 21.2695 39.0731 21.24 39.0731H0.295C0.2655 39.0731 0.2655 39.0442 0.2655 39.0442C0.2065 39.0152 0.177 38.9573 0.177 38.8994C0.177 38.8125 0.236 38.7545 0.295 38.7256C0.295 38.7256 0.295 38.7256 0.3245 38.7256H3.5695C3.717 38.7256 3.8055 38.6676 3.8055 38.5228V1.50616C3.8055 1.36134 3.717 1.3034 3.5695 1.3034H0.1475H0.118C0.118 1.3034 0.118 1.3034 0.0884998 1.27444C0.0294998 1.24547 0 1.18754 0 1.12961C0 1.04272 0.0294998 1.01376 0.0884998 0.984792L0.118 0.955834H12.39C12.5965 0.955834 12.5965 1.3034 12.39 1.3034H9.0565C8.909 1.3034 8.8205 1.36134 8.8205 1.50616V38.5518C8.8205 38.6966 8.909 38.7545 9.0565 38.7545H12.862C18.644 38.7545 21.181 31.7741 21.181 26.2708C21.181 26.126 21.3285 26.126 21.3285 26.2419ZM119.917 25.7495V39.8841C119.917 39.9421 119.829 39.9421 119.829 39.8841C119.74 39.2469 119.121 38.2911 118.088 38.2911C116.348 38.2911 113.545 40 111.392 40C104.164 40 98.825 30.7024 98.825 20.0724C98.825 9.32658 104.017 0.0289663 111.244 0.0289663C113.073 0.0289663 115.463 1.47719 117.174 1.47719C118.206 1.47719 118.944 0.753079 119.062 0.173789C119.062 0.0868953 119.209 0.0868953 119.209 0.173789V12.7734C119.209 12.8602 119.062 12.8602 119.062 12.7734C119.062 7.41492 114.961 0.434468 111.185 0.434468C109.445 0.434468 108.058 0.753081 106.967 2.37509C105.138 5.01087 104.4 10.5431 104.4 20.0724C104.4 29.5438 105.138 35.134 106.967 37.7697C108.058 39.3338 109.651 39.7104 111.362 39.7104C116.023 39.7104 119.77 32.8168 119.77 25.7495C119.829 25.6626 119.917 25.6626 119.917 25.7495ZM87.143 1.10066V12.1941C87.143 12.281 86.9955 12.281 86.9955 12.1941C86.9955 7.1832 84.429 1.27444 79.6205 1.3034H75.8445C75.697 1.3034 75.6085 1.36134 75.6085 1.50616V19.3483H76.2575C79.3255 19.3483 81.5085 15.8436 81.5085 12.1361C81.5085 12.0492 81.656 12.0492 81.656 12.1361V26.8791C81.656 26.966 81.5085 26.966 81.5085 26.8791C81.5085 23.2295 79.3255 19.6669 76.2575 19.6669H75.6085V38.5228C75.6085 38.6676 75.697 38.7256 75.8445 38.7256H79.2075C79.2665 38.7545 79.3255 38.8125 79.3255 38.8994C79.3255 38.9862 79.2665 39.0442 79.2075 39.0731H66.965C66.906 39.0442 66.847 38.9862 66.847 38.8994C66.847 38.8125 66.906 38.7545 66.965 38.7256H70.328C70.5345 38.7256 70.564 38.6676 70.564 38.5228V1.50616C70.564 1.36134 70.4755 1.3034 70.328 1.3034H66.9945H66.965C66.965 1.3034 66.965 1.3034 66.9355 1.27444C66.8765 1.24547 66.8175 1.18754 66.8175 1.12961C66.8175 1.04272 66.8765 1.01376 66.906 0.984792C66.906 0.984792 66.906 0.955834 66.9355 0.955834H87.0545C87.084 0.955834 87.143 1.04273 87.143 1.10066ZM177 26.2998V38.9283C177 39.0152 177 39.0731 176.911 39.0731H155.848H155.819C155.819 39.0731 155.819 39.0731 155.789 39.0442C155.73 39.0152 155.671 38.9573 155.671 38.8994C155.671 38.8125 155.73 38.7545 155.76 38.7545C155.76 38.7545 155.76 38.7256 155.789 38.7256H159.152C159.3 38.7256 159.388 38.6676 159.388 38.5228V1.50616C159.388 1.36134 159.3 1.3034 159.152 1.3034H155.789C155.701 1.3034 155.642 1.21651 155.642 1.12961C155.642 1.04272 155.701 0.955834 155.76 0.955834H168.032V0.984792C168.091 1.01376 168.12 1.07169 168.12 1.12961C168.12 1.18754 168.091 1.24547 168.032 1.27444V1.3034H168.002H164.669C164.521 1.3034 164.433 1.36134 164.433 1.50616V38.5518C164.433 38.6966 164.521 38.7545 164.669 38.7545H168.474C174.256 38.7545 176.793 31.803 176.793 26.3287C176.852 26.1839 177 26.1839 177 26.2998ZM155.376 26.7632V38.9283C155.376 39.0152 155.318 39.0731 155.288 39.0731H155.199H133.163H133.133C133.133 39.0731 133.133 39.0731 133.104 39.0442C133.045 39.0152 132.986 38.9573 132.986 38.8994C132.986 38.8125 133.045 38.7835 133.074 38.7545C133.074 38.7545 133.074 38.7256 133.104 38.7256H136.467C136.614 38.7256 136.703 38.6676 136.703 38.5228V1.50616C136.703 1.36134 136.644 1.3034 136.467 1.3034H133.133H133.104C133.104 1.3034 133.104 1.3034 133.074 1.27444C133.015 1.24547 132.956 1.18754 132.956 1.12961C132.956 1.04272 132.986 1.01376 133.045 0.984792C133.045 0.984792 133.045 0.955834 133.074 0.955834H153.252C153.341 0.955834 153.341 1.04273 153.341 1.10066V12.223C153.341 12.3099 153.193 12.3099 153.193 12.223C153.193 7.21217 150.656 1.3034 145.907 1.3034H142.131C141.983 1.3034 141.895 1.36134 141.895 1.50616V19.3483H142.898C145.966 19.3483 148.208 15.8436 148.208 12.1361C148.208 12.0492 148.296 12.0492 148.296 12.1361V26.8791C148.296 26.966 148.208 26.966 148.208 26.8791C148.208 23.2295 145.966 19.6669 142.898 19.6669H141.895V38.5228C141.895 38.6676 141.954 38.7256 142.131 38.7256H145.996C152.279 38.7256 155.199 32.3244 155.199 26.7632C155.229 26.6763 155.376 26.6763 155.376 26.7632ZM99.9755 38.8994C99.9755 38.9862 99.9165 39.0152 99.887 39.0442V39.0731H99.8575H87.6445H87.615C87.615 39.0731 87.615 39.0731 87.5855 39.0442C87.5265 39.0152 87.4675 38.9573 87.4675 38.8994C87.4675 38.8125 87.5265 38.7835 87.556 38.7545C87.556 38.7545 87.556 38.7256 87.5855 38.7256H90.9485C91.096 38.7256 91.1845 38.6676 91.1845 38.5228V1.50616C91.1845 1.36134 91.096 1.3034 90.9485 1.3034H87.5855C87.5265 1.27444 87.4675 1.21651 87.4675 1.12961C87.4675 1.04272 87.5265 0.984799 87.5855 0.955834C87.5855 0.955834 87.5855 0.926868 87.615 0.926868H99.8575V0.955834C99.9165 0.984799 99.946 1.04273 99.946 1.10066C99.946 1.15859 99.9165 1.21651 99.8575 1.24548V1.27444H99.828H96.4945C96.347 1.27444 96.2585 1.33237 96.2585 1.47719V38.5228C96.2585 38.6676 96.347 38.7256 96.4945 38.7256H99.8575V38.7545C99.9165 38.7835 99.9755 38.8125 99.9755 38.8994ZM132.632 38.8994C132.632 38.9862 132.573 39.0442 132.514 39.0731H120.301H120.212V39.0442C120.153 39.0152 120.124 38.9573 120.124 38.8994C120.124 38.8414 120.153 38.7835 120.212 38.7545C120.212 38.7545 120.212 38.7256 120.242 38.7256H123.605C123.752 38.7256 123.841 38.6676 123.841 38.5228V1.50616C123.841 1.36134 123.752 1.3034 123.605 1.3034H120.271H120.212V1.27444C120.153 1.24547 120.124 1.18754 120.124 1.12961C120.124 1.04272 120.153 1.01376 120.212 0.984792V0.955834H132.484L132.514 0.984792C132.573 1.01376 132.602 1.07169 132.602 1.12961C132.602 1.21651 132.573 1.24547 132.514 1.27444C132.514 1.27444 132.514 1.3034 132.484 1.3034H132.455H129.121C128.974 1.3034 128.885 1.36134 128.885 1.50616V38.5518C128.885 38.6966 128.974 38.7545 129.121 38.7545H132.484C132.484 38.7545 132.484 38.7545 132.514 38.7835C132.573 38.7545 132.632 38.8125 132.632 38.8994Z" fill="white" fill-opacity="0.24"/>
</svg>
