<svg width="135" height="48" viewBox="0 0 135 48" fill="none" xmlns="http://www.w3.org/2000/svg">
<path d="M9.86925 42.9135L3.45784 29.5165V40.1195C3.45784 41.1225 3.60191 41.7672 3.81803 41.9822C4.10618 42.3404 4.61045 42.4836 5.2588 42.4836H5.83509V42.9135H0V42.4836H0.576299C1.29668 42.4836 1.80096 42.2687 2.08911 41.8389C2.30523 41.5523 2.37726 40.9792 2.37726 40.1195V29.8031C2.37726 29.0866 2.30523 28.5851 2.16115 28.2269C2.01708 28.012 1.80094 27.7971 1.51279 27.6538C1.22464 27.5105 0.720384 27.4389 0 27.4389V27.009H4.82656L10.8058 39.3314L16.7129 27.009H21.4674V27.4389H20.8911C20.1708 27.4389 19.6665 27.6538 19.3783 28.0837C19.1622 28.3702 19.0902 28.9434 19.0902 29.8747V40.1195C19.0902 41.1225 19.2343 41.7672 19.4504 41.9822C19.7385 42.3404 20.2428 42.4836 20.8911 42.4836H21.4674V42.9135H14.3356V42.4836H14.9119C15.6323 42.4836 16.1366 42.2687 16.4248 41.8389C16.6409 41.5523 16.7129 40.9792 16.7129 40.1195V29.5165L10.3015 42.9135H9.86925V42.9135Z" fill="white"/>
<path d="M30.9043 42.4836V42.9135H23.7725V42.4836H24.3488C25.0691 42.4836 25.5014 42.2687 25.8616 41.9105C26.0777 41.6956 26.1497 41.0508 26.1497 40.1195V29.8031C26.1497 29.015 26.0777 28.4419 26.0056 28.2269C25.9336 28.012 25.7895 27.8687 25.5014 27.7255C25.1412 27.5105 24.781 27.4389 24.3488 27.4389H23.7725V27.009H30.9043V27.4389H30.3279C29.6796 27.4389 29.1753 27.6538 28.8872 28.012C28.6711 28.2269 28.599 28.8717 28.599 29.8031V40.1195C28.599 40.9075 28.6711 41.4807 28.7431 41.6956C28.8151 41.9105 28.9592 42.0538 29.2474 42.1971C29.6076 42.412 29.9677 42.4836 30.3279 42.4836H30.9043V42.4836Z" fill="white"/>
<path d="M47.329 38.5433L47.6892 38.615L46.2484 42.9135H33.3535V42.4836H34.0019C34.7222 42.4836 35.2265 42.2687 35.5147 41.8389C35.6587 41.6239 35.8028 41.0508 35.8028 40.1195V29.8031C35.8028 28.8001 35.6587 28.1553 35.4426 27.9404C35.1545 27.5822 34.6502 27.4389 34.0019 27.4389H33.3535V27.009H40.8455V27.4389C39.981 27.4389 39.3327 27.5105 38.9725 27.6538C38.6123 27.7971 38.3962 28.012 38.2521 28.2986C38.108 28.5135 38.036 29.1583 38.036 30.0896V40.1195C38.036 40.7642 38.108 41.1941 38.2521 41.4807C38.3242 41.6239 38.4682 41.7672 38.6844 41.8389C38.9005 41.9105 39.5488 41.9822 40.6294 41.9822H41.854C43.1507 41.9822 44.0152 41.9105 44.5195 41.6956C45.0237 41.4807 45.528 41.1941 45.9602 40.7642C46.4645 40.2628 46.8967 39.5463 47.329 38.5433Z" fill="white"/>
<path d="M59.3598 37.612H52.9484L51.7958 40.1194C51.5077 40.7642 51.3636 41.1941 51.3636 41.4806C51.3636 41.6956 51.5077 41.9105 51.7238 42.1254C51.9399 42.3403 52.5162 42.412 53.3086 42.4836V42.9135H48.0498V42.4836C48.7702 42.3403 49.2024 42.1971 49.4185 42.0538C49.8508 41.6956 50.283 40.9075 50.7873 39.7612L56.6944 26.7224H57.2707L62.8897 39.9045C63.322 40.9791 63.7542 41.6239 64.1864 41.9821C64.5466 42.2687 65.1229 42.4836 65.7713 42.4836V42.9135H59.1437V42.4836C59.7921 42.4836 60.2243 42.3403 60.5125 42.197C60.7286 42.0538 60.8727 41.7672 60.8727 41.5523C60.8727 41.1941 60.7286 40.6926 60.3684 39.9045L59.3598 37.612ZM58.9997 36.7523L56.2622 30.3045L53.3086 36.7523H58.9997Z" fill="white"/>
<path d="M88.4629 42.4836V42.9135H81.3311V42.4836H81.9074C82.6277 42.4836 83.06 42.2687 83.4202 41.9105C83.6363 41.6956 83.7083 41.0508 83.7083 40.1195V29.8031C83.7083 29.015 83.6363 28.4419 83.5643 28.2269C83.4922 28.012 83.3481 27.8687 83.06 27.7255C82.6998 27.5105 82.3396 27.4389 81.9074 27.4389H81.3311V27.009H88.4629V27.4389H87.8866C87.2382 27.4389 86.7339 27.6538 86.4458 28.012C86.2297 28.2269 86.1576 28.8717 86.1576 29.8031V40.1195C86.1576 40.9075 86.2297 41.4807 86.3017 41.6956C86.3737 41.9105 86.5178 42.0538 86.806 42.1971C87.1662 42.412 87.5264 42.4836 87.8866 42.4836H88.4629V42.4836Z" fill="white"/>
<path d="M103.664 27.009L103.808 30.7344H103.376C103.303 30.0896 103.159 29.5881 103.015 29.3016C102.727 28.8717 102.439 28.5135 102.007 28.2986C101.575 28.0837 100.998 27.9404 100.35 27.9404H98.0446V40.1195C98.0446 41.1225 98.1887 41.7672 98.4048 41.9822C98.693 42.3404 99.1973 42.4836 99.8456 42.4836H100.422V42.9135H93.2901V42.4836H93.8664C94.5868 42.4836 95.0911 42.2687 95.3792 41.8389C95.5953 41.5523 95.6674 40.9792 95.6674 40.1195V28.012H93.6503C92.8579 28.012 92.3536 28.0836 91.9934 28.1553C91.5612 28.2986 91.201 28.5851 90.9128 29.015C90.6247 29.4448 90.4086 30.018 90.4086 30.7344H89.9043L90.0484 27.009H103.664V27.009Z" fill="white"/>
<path d="M116.342 26.7224V32.1672H115.909C115.765 31.1642 115.477 30.3045 115.117 29.6597C114.757 29.0149 114.181 28.5851 113.46 28.2269C112.74 27.8686 112.019 27.6537 111.299 27.6537C110.435 27.6537 109.714 27.8687 109.21 28.3701C108.634 28.8716 108.345 29.4448 108.345 30.0895C108.345 30.591 108.489 31.0209 108.85 31.3791C109.354 31.9522 110.579 32.7403 112.452 33.7433C114.036 34.5313 115.045 35.1761 115.621 35.5343C116.198 35.9642 116.63 36.4657 116.918 37.0388C117.206 37.6119 117.35 38.1851 117.35 38.8299C117.35 40.0478 116.846 41.0507 115.909 41.9104C114.901 42.7701 113.676 43.2 112.163 43.2C111.659 43.2 111.227 43.2 110.795 43.1284C110.507 43.0567 110.002 42.9134 109.21 42.6985C108.417 42.4836 107.913 42.3403 107.697 42.3403C107.481 42.3403 107.337 42.4119 107.193 42.4836C107.049 42.6269 106.977 42.8418 106.905 43.2H106.472V37.7552H106.905C107.121 38.9015 107.409 39.7612 107.769 40.3343C108.129 40.9075 108.706 41.3373 109.426 41.7672C110.146 42.1254 111.011 42.3403 111.875 42.3403C112.884 42.3403 113.676 42.0537 114.325 41.5522C114.901 41.0507 115.189 40.406 115.189 39.6895C115.189 39.3313 115.045 38.9015 114.829 38.4716C114.613 38.0418 114.253 37.6836 113.82 37.3254C113.532 37.1104 112.596 36.609 111.227 35.8209C109.786 35.1045 108.778 34.4597 108.201 34.0298C107.625 33.6 107.121 33.0985 106.833 32.5254C106.544 31.9522 106.4 31.3791 106.4 30.7343C106.4 29.588 106.833 28.5851 107.769 27.797C108.706 26.9373 109.858 26.5791 111.299 26.5791C112.163 26.5791 113.1 26.794 114.109 27.2239C114.541 27.4388 114.901 27.5104 115.045 27.5104C115.261 27.5104 115.405 27.4388 115.549 27.3672C115.693 27.2239 115.765 27.009 115.909 26.6507H116.342V26.7224Z" fill="white"/>
<path d="M128.588 37.612H122.177L121.024 40.1194C120.736 40.7642 120.592 41.1941 120.592 41.4806C120.592 41.6956 120.736 41.9105 120.952 42.1254C121.168 42.3403 121.745 42.412 122.537 42.4836V42.9135H117.278V42.4836C117.999 42.3403 118.431 42.1971 118.647 42.0538C119.079 41.6956 119.512 40.9075 120.016 39.7612L125.923 26.7224H126.499L132.118 39.9045C132.55 40.9791 132.983 41.6239 133.415 41.9821C133.775 42.2687 134.351 42.4836 135 42.4836V42.9135H128.372V42.4836C129.021 42.4836 129.453 42.3403 129.741 42.197C129.957 42.0538 130.101 41.7672 130.101 41.5523C130.101 41.1941 129.957 40.6926 129.597 39.9045L128.588 37.612ZM128.156 36.7523L125.419 30.3045L122.465 36.7523H128.156Z" fill="white"/>
<path d="M81.98 21.4209L72.3989 48H71.9667L59.1438 20.991C58.4955 19.5582 57.7031 18.5552 57.487 18.2686C57.1268 17.7671 56.4784 17.4089 55.9021 17.1224C55.3258 16.8358 54.6775 16.6925 53.6689 16.6209V16.0477H66.0595V16.6209C64.5467 16.7642 63.7543 17.1224 63.3221 17.4806C62.8899 17.8388 62.5297 18.4119 62.5297 18.985C62.5297 19.7731 62.8899 21.0627 63.6102 22.7104L72.615 42.9134L81.4037 18.2686L81.98 21.4209Z" fill="white"/>
<path d="M68.0039 14.2567L81.6192 13.1104L77.4409 8.02389L83.4201 11.8209L84.4287 0L85.9415 11.8209L92.569 7.7373L87.5263 12.9672L115.189 13.6836L86.2296 15.2597L84.7168 24L83.4201 16.1194L75.4239 19.9881L81.6192 14.9731L68.0039 14.2567Z" fill="white"/>
</svg>
