<svg width="159" height="40" viewBox="0 0 159 40" fill="none" xmlns="http://www.w3.org/2000/svg">
<g clip-path="url(#clip0_179_2096)">
<path fill-rule="evenodd" clip-rule="evenodd" d="M26.4392 34.6447L23.2949 40H158.908V34.6447H26.4392Z" fill="white" fill-opacity="0.24"/>
<path fill-rule="evenodd" clip-rule="evenodd" d="M20.7539 0.474854V21.0909C20.7539 21.7006 20.7317 22.3455 20.6936 23.0162C20.6646 23.5883 20.5513 24.1529 20.3573 24.6911C20.2095 25.1073 19.9435 25.47 19.5927 25.734C18.9581 26.2249 17.34 26.2024 16.7593 25.734C16.4134 25.4653 16.1503 25.1024 16.001 24.6879C15.8105 24.1606 15.7034 23.6061 15.6837 23.045C15.6552 22.3776 15.6425 21.7327 15.6425 21.1198V0.474854H8.951V21.2129C8.91108 22.8568 9.12518 24.4969 9.58556 26.0741C9.97472 27.35 10.6639 28.5116 11.594 29.4593C15.1317 32.806 21.7216 32.514 24.996 29.0486C25.9173 27.9836 26.5617 26.7032 26.8711 25.3232C27.2502 23.6677 27.4292 21.9718 27.4042 20.2727V0.474854H20.7412H20.7539Z" fill="white" fill-opacity="0.24"/>
<path fill-rule="evenodd" clip-rule="evenodd" d="M111.096 17.8887H106.337L108.742 8.05074L111.099 17.8887H111.096ZM112.921 0.478149H104.77L97.3643 31.3172H103.526L105.261 23.4815H112.2L113.939 31.3172H120.126L112.921 0.478149Z" fill="white" fill-opacity="0.24"/>
<path fill-rule="evenodd" clip-rule="evenodd" d="M39.2002 25.8976L40.463 31.4455L46.8404 31.2498L43.8262 16.5345L39.2002 25.8976Z" fill="white" fill-opacity="0.24"/>
<path fill-rule="evenodd" clip-rule="evenodd" d="M37.3445 5.84632L36.0786 0.301636L29.7012 0.497368L32.7154 15.2094L37.3445 5.84632Z" fill="white" fill-opacity="0.24"/>
<path fill-rule="evenodd" clip-rule="evenodd" d="M42.0555 0.478149L27.4922 31.359H34.5137L48.6994 0.478149H42.0555Z" fill="white" fill-opacity="0.24"/>
<path fill-rule="evenodd" clip-rule="evenodd" d="M61.232 0.478149L56.7837 22.474L52.3703 0.478149H46.085L52.6495 31.3237H60.9275L67.5333 0.478149H61.232Z" fill="white" fill-opacity="0.24"/>
<path fill-rule="evenodd" clip-rule="evenodd" d="M158.908 31.4648H143.387V0.606445H158.908V5.28798H149.517V12.8606H159L158.956 17.5421H149.517V26.7865H158.908V31.4648Z" fill="white" fill-opacity="0.24"/>
<path fill-rule="evenodd" clip-rule="evenodd" d="M136.74 31.4777V29.9599C130.711 34.0382 122.278 32.0167 121.272 23.2665C120.758 18.8064 120.387 9.68397 122.443 5.69552C125.181 0.388289 132.279 -1.24174 137.53 2.68895C139.265 3.97244 140.242 6.07736 140.198 8.96201L140.15 12.129H133.779V7.95768C133.779 5.04416 127.637 4.95752 127.637 8.35556V24.8901C127.637 27.9609 133.779 28.4518 133.779 24.8901V20.8536H130.664V16.2811H140.134V31.4777H136.74Z" fill="white" fill-opacity="0.24"/>
<path fill-rule="evenodd" clip-rule="evenodd" d="M96.2732 8.85609H89.5849V7.32232C89.5849 5.71795 88.9948 4.93181 87.8113 4.93181C87.126 4.93181 86.6627 5.12113 86.4153 5.50296C86.1678 5.8848 86.0377 6.49126 86.0377 7.32232C85.9914 8.30961 86.3337 9.27525 86.9895 10.008C87.6241 10.6797 88.871 11.8263 90.7303 13.4478C92.5896 15.0693 93.9825 16.6244 94.9089 18.1133C95.8227 19.6107 96.2796 21.429 96.2796 23.5681C96.2796 26.4431 95.5699 28.5769 94.1506 29.9695C92.7313 31.3621 90.6066 32.0584 87.7764 32.0584C85.346 32.0584 83.3366 31.5236 81.748 30.454C80.1595 29.3845 79.3652 27.6218 79.3652 25.166V22.4194H86.0536V24.7778C86.0536 25.6634 86.1932 26.2795 86.4629 26.6132C86.7325 26.9469 87.1894 27.1202 87.8272 27.1202C89.0096 27.1202 89.6008 26.3404 89.6008 24.781C89.6008 23.2216 89.2137 21.9916 88.4395 21.091C87.277 19.7985 86.0121 18.6041 84.6575 17.5197C83.1243 16.2972 81.7894 14.84 80.701 13.2007C79.8084 11.7846 79.3631 9.95882 79.3652 7.72341C79.3652 2.58944 82.2208 0.0224609 87.9319 0.0224609C90.4363 0.0224609 92.4532 0.557249 93.9825 1.62682C95.5086 2.69212 96.2732 4.43126 96.2732 6.83459V8.85609Z" fill="white" fill-opacity="0.24"/>
<path d="M76.2619 0.606445H69.748V31.4648H76.2619V0.606445Z" fill="white" fill-opacity="0.24"/>
<path fill-rule="evenodd" clip-rule="evenodd" d="M20.7598 40H0V0.606445H6.27268V34.6446H23.9739L20.7598 40Z" fill="white" fill-opacity="0.24"/>
</g>
<defs>
<clipPath id="clip0_179_2096">
<rect width="159" height="40" fill="white"/>
</clipPath>
</defs>
</svg>
